<svg width="288" height="40" viewBox="0 0 288 40" fill="none" xmlns="http://www.w3.org/2000/svg">
<path d="M32.4649 7.45917C27.1463 2.11384 20.9589 0.153954 16.319 1.73206C16.319 1.73206 14.0396 2.55407 13.0899 4.21378C12.1401 5.87349 12.52 6.14818 12.52 6.14818C12.52 6.14818 12.5201 8.22277 14.4196 9.36819C16.319 10.5136 17.4588 9.75 17.4588 8.79548C17.4588 7.84096 16.699 7.26825 15.3693 6.69553C14.0396 6.12282 11.6827 5.88974 9.29085 5.93191C7.19303 5.9689 5.80681 6.18995 3.59232 6.50464C2.25198 6.6951 2.26272 6.69553 1.31295 6.88644C0.363172 7.07735 5.87173 8.98646 8.15114 10.7046C10.4306 12.4227 11.1904 12.9955 12.52 14.7135C13.8497 16.4316 14.0397 17.0043 14.6095 18.1498C15.1793 19.2952 15.1794 19.677 15.9391 21.586C16.6989 23.4951 17.6487 25.4043 18.0286 26.1678C18.4085 26.9314 19.3583 28.4587 19.3583 28.4587C19.3583 28.4587 20.3081 30.1767 22.2075 32.0858C22.9672 32.8494 24.297 33.8517 25.4367 34.5675C26.5764 35.2834 27.5679 35.8798 29.0458 36.4766C29.9164 36.8281 30.4223 36.9836 31.3252 37.2402C32.2775 37.5108 32.8202 37.6384 33.7946 37.8129C35.7718 38.1671 36.9151 38.2273 38.9232 38.1947C42.1546 38.1423 44.007 37.8288 47.0911 36.8584C50.9224 35.6529 52.9581 34.4535 56.2089 32.0858C58.4635 30.4436 61.5275 27.3132 61.5275 27.3132C61.5275 27.3132 60.4203 25.7593 59.628 24.8314C58.1587 23.1108 57.1794 22.2775 55.4491 20.8225C52.5772 18.4076 49.4926 16.4316 47.851 15.4771C46.3314 14.5936 43.862 13.1753 40.8228 12.0409C37.4812 10.7937 34.1745 9.9409 31.895 9.75C29.6156 9.55909 27.1463 9.5994 25.4367 10.5136C23.5821 11.5054 22.6832 12.6571 22.2075 14.7135C21.7958 16.4937 21.9564 17.9088 22.7774 19.677C23.6743 21.6086 24.6793 22.4897 26.4675 23.6351C28.2557 24.7806 31.0809 25.6056 34.1745 26.1678C37.6783 26.8046 43.2921 26.3586 43.2921 26.3586C43.2921 26.3586 48.3283 25.9267 51.4601 25.2133C54.7548 24.4627 59.628 22.3497 59.628 22.3497C59.628 22.3497 64.816 19.8914 67.7959 17.768C70.9669 15.5083 75.204 11.0863 75.204 11.0863M72.3547 19.677L75.204 11.0863L65.7064 14.5226" stroke="url(#paint0_linear_13_101)" stroke-width="2.4" stroke-linecap="round"/>
<path d="M271.071 33.5555V22.4938L272.229 25.6885L260.089 5.60178H265.64L275.384 21.775H272.269L282.093 5.60178H287.204L275.064 25.6885L276.262 22.4938V33.5555H271.071Z" fill="#F8FAFC"/>
<path d="M229.392 33.5555V5.60178H240.853C244.581 5.60178 247.496 6.48032 249.599 8.23741C251.729 9.9945 252.794 12.4305 252.794 15.5453C252.794 17.5952 252.314 19.3656 251.356 20.8565C250.398 22.3207 249.026 23.4522 247.243 24.2509C245.486 25.0229 243.369 25.409 240.893 25.409H232.268L234.584 23.0529V33.5555H229.392ZM247.682 33.5555L240.614 23.4123H246.165L253.273 33.5555H247.682ZM234.584 23.6119L232.268 21.136H240.654C242.943 21.136 244.66 20.6435 245.805 19.6585C246.977 18.6735 247.562 17.3024 247.562 15.5453C247.562 13.7616 246.977 12.3905 245.805 11.4321C244.66 10.4737 242.943 9.9945 240.654 9.9945H232.268L234.584 7.43873V23.6119Z" fill="#F8FAFC"/>
<path d="M189.537 33.5555L202.116 5.60178H207.228L219.847 33.5555H214.416L203.594 8.35721H205.67L194.888 33.5555H189.537ZM195.328 27.0862L196.725 23.0129H211.82L213.218 27.0862H195.328Z" fill="#F8FAFC"/>
<path d="M155.171 33.5555V5.60178H159.444L176.975 27.1261H174.858V5.60178H177.288H180.01V33.5555H175.737L158.206 12.0311H160.322V33.5555H155.171Z" fill="#F8FAFC"/>
<path d="M115.316 33.5555L127.895 5.60178H133.007L145.626 33.5555H140.195L129.373 8.35721H131.449L120.667 33.5555H115.316ZM121.106 27.0862L122.504 23.0129H137.599L138.997 27.0862H121.106Z" fill="#F8FAFC"/>
<path d="M98.1392 33.9548C96.0094 33.9548 94.0261 33.6087 92.1891 32.9165C90.3788 32.1977 88.7947 31.1994 87.437 29.9215C86.1058 28.617 85.0676 27.0862 84.3221 25.3291C83.5767 23.572 83.204 21.6552 83.204 19.5786C83.204 17.502 83.5767 15.5852 84.3221 13.8281C85.0676 12.071 86.1192 10.5536 87.4769 9.27568C88.8347 7.97117 90.4187 6.97282 92.229 6.28064C94.0394 5.56183 96.0227 5.20242 98.1792 5.20242C100.469 5.20242 102.559 5.60176 104.449 6.40044C106.339 7.17249 107.936 8.33057 109.241 9.87468L105.886 13.0295C104.875 11.9379 103.743 11.1259 102.492 10.5935C101.241 10.0344 99.883 9.75488 98.4188 9.75488C96.9545 9.75488 95.6101 9.99449 94.3855 10.4737C93.1874 10.9529 92.1359 11.6318 91.2307 12.5103C90.3521 13.3889 89.66 14.4271 89.1541 15.6252C88.6749 16.8232 88.4353 18.141 88.4353 19.5786C88.4353 21.0162 88.6749 22.334 89.1541 23.5321C89.66 24.7301 90.3521 25.7684 91.2307 26.6469C92.1359 27.5254 93.1874 28.2043 94.3855 28.6835C95.6101 29.1627 96.9545 29.4023 98.4188 29.4023C99.883 29.4023 101.241 29.1361 102.492 28.6037C103.743 28.0446 104.875 27.206 105.886 26.0878L109.241 29.2825C107.936 30.8 106.339 31.9581 104.449 32.7568C102.559 33.5555 100.455 33.9548 98.1392 33.9548Z" fill="#F8FAFC"/>
<defs>
<linearGradient id="paint0_linear_13_101" x1="76.2347" y1="10.2719" x2="1.20226" y2="6.68072" gradientUnits="userSpaceOnUse">
<stop stop-color="#94A3B8"/>
<stop offset="0.5" stop-color="#E2E8F0"/>
<stop offset="1" stop-color="#FACC15"/>
</linearGradient>
</defs>
</svg>
